HIERARCHY
ROOT Root
{
  OFFSET 0.0 0.0 0.0
  CHANNELS 6 Xposition Yposition Zposition Zrotation Yrotation Xrotation
  JOINT Hips
  {
    OFFSET 0.0 100.0 0.0
    CHANNELS 6 Xposition Yposition Zposition Zrotation Yrotation Xrotation
    JOINT Spine1
    {
      OFFSET -0.013727 5.003763 -0.053727
      CHANNELS 3 Zrotation Yrotation Xrotation
      JOINT Spine2
      {
        OFFSET -0.0 7.125301 -0.029825
        CHANNELS 3 Zrotation Yrotation Xrotation
        JOINT Chest
        {
          OFFSET -1e-06 7.550063 -0.815971
          CHANNELS 3 Zrotation Yrotation Xrotation
          JOINT Neck1
          {
            OFFSET -0.181677 26.311295 -0.553348
            CHANNELS 3 Zrotation Yrotation Xrotation
            JOINT Neck2
            {
              OFFSET -3e-06 7.709397 2.302585
              CHANNELS 3 Zrotation Yrotation Xrotation
              JOINT Head
              {
                OFFSET -5e-06 6.128916 1.953709
                CHANNELS 3 Zrotation Yrotation Xrotation
                JOINT HeadEnd
                {
                  OFFSET 0.003598 16.065403 -1.835379
                  CHANNELS 3 Zrotation Yrotation Xrotation
                }
                JOINT Jaw
                {
                  OFFSET 0.002637 0.475592 3.094941
                  CHANNELS 3 Zrotation Yrotation Xrotation
                }
                JOINT LeftEye
                {
                  OFFSET 3.206381 5.380205 7.586883
                  CHANNELS 3 Zrotation Yrotation Xrotation
                }
                JOINT RightEye
                {
                  OFFSET -3.22244 5.361869 7.558234
                  CHANNELS 3 Zrotation Yrotation Xrotation
                }
              }
            }
          }
          JOINT LeftShoulder
          {
            OFFSET 1.621652 23.237164 5.113413
            CHANNELS 3 Zrotation Yrotation Xrotation
            JOINT LeftArm
            {
              OFFSET 14.919846 2e-06 -5.502326
              CHANNELS 3 Zrotation Yrotation Xrotation
              JOINT LeftForeArm
              {
                OFFSET 28.739307 0.0 -0.002588
                CHANNELS 3 Zrotation Yrotation Xrotation
                JOINT LeftHand
                {
                  OFFSET 27.093981 -1e-06 0.002609
                  CHANNELS 3 Zrotation Yrotation Xrotation
                  JOINT LeftHandThumb1
                  {
                    OFFSET 2.276482 -1.392045 3.191413
                    CHANNELS 3 Zrotation Yrotation Xrotation
                    JOINT LeftHandThumb2
                    {
                      OFFSET 4.012836 -1.828127 1.641654
                      CHANNELS 3 Zrotation Yrotation Xrotation
                      JOINT LeftHandThumb3
                      {
                        OFFSET 2.798515 0.0 -3e-06
                        CHANNELS 3 Zrotation Yrotation Xrotation
                        JOINT LeftHandThumbEnd
                        {
                          OFFSET 3.180793 -4e-06 4e-06
                          CHANNELS 3 Zrotation Yrotation Xrotation
                        }
                      }
                    }
                  }
                  JOINT LeftHandIndex1
                  {
                    OFFSET 3.247555 -0.531998 2.296169
                    CHANNELS 3 Zrotation Yrotation Xrotation
                    JOINT LeftHandIndex2
                    {
                      OFFSET 6.364578 0.01206 0.1786
                      CHANNELS 3 Zrotation Yrotation Xrotation
                      JOINT LeftHandIndex3
                      {
                        OFFSET 3.662364 0.0 0.0
                        CHANNELS 3 Zrotation Yrotation Xrotation
                        JOINT LeftHandIndex4
                        {
                          OFFSET 2.329242 4e-06 4e-06
                          CHANNELS 3 Zrotation Yrotation Xrotation
                          JOINT LeftHandIndexEnd
                          {
                            OFFSET 2.759615 -0.180537 -0.113024
                            CHANNELS 3 Zrotation Yrotation Xrotation
                          }
                        }
                      }
                    }
                  }
                  JOINT LeftHandMiddle1
                  {
                    OFFSET 3.163495 0.240981 1.000332
                    CHANNELS 3 Zrotation Yrotation Xrotation
                    JOINT LeftHandMiddle2
                    {
                      OFFSET 6.19078 -0.259278 -1.002548
                      CHANNELS 3 Zrotation Yrotation Xrotation
                      JOINT LeftHandMiddle3
                      {
                        OFFSET 4.35652 -4e-06 -1e-06
                        CHANNELS 3 Zrotation Yrotation Xrotation
                        JOINT LeftHandMiddle4
                        {
                          OFFSET 2.996877 -8e-06 0.0
                          CHANNELS 3 Zrotation Yrotation Xrotation
                          JOINT LeftHandMiddleEnd
                          {
                            OFFSET 2.304287 -0.294569 -0.031741
                            CHANNELS 3 Zrotation Yrotation Xrotation
                          }
                        }
                      }
                    }
                  }
                  JOINT LeftHandRing1
                  {
                    OFFSET 2.882643 -0.053652 -0.322543
                    CHANNELS 3 Zrotation Yrotation Xrotation
                    JOINT LeftHandRing2
                    {
                      OFFSET 5.854541 -0.486202 -1.373841
                      CHANNELS 3 Zrotation Yrotation Xrotation
                      JOINT LeftHandRing3
                      {
                        OFFSET 4.350578 0.0 3e-06
                        CHANNELS 3 Zrotation Yrotation Xrotation
                        JOINT LeftHandRing4
                        {
                          OFFSET 2.651321 7e-06 2e-06
                          CHANNELS 3 Zrotation Yrotation Xrotation
                          JOINT LeftHandRingEnd
                          {
                            OFFSET 1.936105 0.077687 -7.1e-05
                            CHANNELS 3 Zrotation Yrotation Xrotation
                          }
                        }
                      }
                    }
                  }
                  JOINT LeftHandPinky1
                  {
                    OFFSET 2.8655 -0.310005 -1.600378
                    CHANNELS 3 Zrotation Yrotation Xrotation
                    JOINT LeftHandPinky2
                    {
                      OFFSET 5.087849 -1.331141 -1.77123
                      CHANNELS 3 Zrotation Yrotation Xrotation
                      JOINT LeftHandPinky3
                      {
                        OFFSET 3.070974 4e-06 0.0
                        CHANNELS 3 Zrotation Yrotation Xrotation
                        JOINT LeftHandPinky4
                        {
                          OFFSET 1.549672 0.0 1e-06
                          CHANNELS 3 Zrotation Yrotation Xrotation
                          JOINT LeftHandPinkyEnd
                          {
                            OFFSET 1.944893 -0.157802 0.057219
                            CHANNELS 3 Zrotation Yrotation Xrotation
                          }
                        }
                      }
                    }
                  }
                }
              }
            }
          }
          JOINT RightShoulder
          {
            OFFSET -1.380118 23.180309 5.214158
            CHANNELS 3 Zrotation Yrotation Xrotation
            JOINT RightArm
            {
              OFFSET -15.037196 1.2e-05 -5.545604
              CHANNELS 3 Zrotation Yrotation Xrotation
              JOINT RightForeArm
              {
                OFFSET -28.736639 2e-06 -0.002597
                CHANNELS 3 Zrotation Yrotation Xrotation
                JOINT RightHand
                {
                  OFFSET -27.133619 -0.0 0.002613
                  CHANNELS 3 Zrotation Yrotation Xrotation
                  JOINT RightHandThumb1
                  {
                    OFFSET -2.274032 -1.383988 3.163127
                    CHANNELS 3 Zrotation Yrotation Xrotation
                    JOINT RightHandThumb2
                    {
                      OFFSET -4.011429 -1.827466 1.640914
                      CHANNELS 3 Zrotation Yrotation Xrotation
                      JOINT RightHandThumb3
                      {
                        OFFSET -2.794935 -4e-06 -3e-06
                        CHANNELS 3 Zrotation Yrotation Xrotation
                        JOINT RightHandThumbEnd
                        {
                          OFFSET -3.183852 4e-06 1e-06
                          CHANNELS 3 Zrotation Yrotation Xrotation
                        }
                      }
                    }
                  }
                  JOINT RightHandIndex1
                  {
                    OFFSET -3.253266 -0.520057 2.282866
                    CHANNELS 3 Zrotation Yrotation Xrotation
                    JOINT RightHandIndex2
                    {
                      OFFSET -6.341917 0.012471 0.178266
                      CHANNELS 3 Zrotation Yrotation Xrotation
                      JOINT RightHandIndex3
                      {
                        OFFSET -3.654871 -8e-06 -0.0
                        CHANNELS 3 Zrotation Yrotation Xrotation
                        JOINT RightHandIndex4
                        {
                          OFFSET -2.327586 0.0 1e-06
                          CHANNELS 3 Zrotation Yrotation Xrotation
                          JOINT RightHandIndexEnd
                          {
                            OFFSET -2.76179 -0.180656 -0.113078
                            CHANNELS 3 Zrotation Yrotation Xrotation
                          }
                        }
                      }
                    }
                  }
                  JOINT RightHandMiddle1
                  {
                    OFFSET -3.168106 0.246593 1.00103
                    CHANNELS 3 Zrotation Yrotation Xrotation
                    JOINT RightHandMiddle2
                    {
                      OFFSET -6.180828 -0.258836 -1.000895
                      CHANNELS 3 Zrotation Yrotation Xrotation
                      JOINT RightHandMiddle3
                      {
                        OFFSET -4.348901 0.0 -0.0
                        CHANNELS 3 Zrotation Yrotation Xrotation
                        JOINT RightHandMiddle4
                        {
                          OFFSET -3.00024 -4e-06 -2e-06
                          CHANNELS 3 Zrotation Yrotation Xrotation
                          JOINT RightHandMiddleEnd
                          {
                            OFFSET -2.30252 -0.29437 -0.031706
                            CHANNELS 3 Zrotation Yrotation Xrotation
                          }
                        }
                      }
                    }
                  }
                  JOINT RightHandRing1
                  {
                    OFFSET -2.88569 -0.067952 -0.308858
                    CHANNELS 3 Zrotation Yrotation Xrotation
                    JOINT RightHandRing2
                    {
                      OFFSET -5.854198 -0.48613 -1.373731
                      CHANNELS 3 Zrotation Yrotation Xrotation
                      JOINT RightHandRing3
                      {
                        OFFSET -4.33881 -4e-06 -0.0
                        CHANNELS 3 Zrotation Yrotation Xrotation
                        JOINT RightHandRing4
                        {
                          OFFSET -2.654903 -4e-06 4e-06
                          CHANNELS 3 Zrotation Yrotation Xrotation
                          JOINT RightHandRingEnd
                          {
                            OFFSET -1.933568 0.077527 -5.2e-05
                            CHANNELS 3 Zrotation Yrotation Xrotation
                          }
                        }
                      }
                    }
                  }
                  JOINT RightHandPinky1
                  {
                    OFFSET -2.866425 -0.342796 -1.584145
                    CHANNELS 3 Zrotation Yrotation Xrotation
                    JOINT RightHandPinky2
                    {
                      OFFSET -5.091371 -1.332055 -1.772385
                      CHANNELS 3 Zrotation Yrotation Xrotation
                      JOINT RightHandPinky3
                      {
                        OFFSET -3.062664 -4e-06 1e-06
                        CHANNELS 3 Zrotation Yrotation Xrotation
                        JOINT RightHandPinky4
                        {
                          OFFSET -1.546529 4e-06 -2e-06
                          CHANNELS 3 Zrotation Yrotation Xrotation
                          JOINT RightHandPinkyEnd
                          {
                            OFFSET -1.945119 -0.157718 0.057211
                            CHANNELS 3 Zrotation Yrotation Xrotation
                          }
                        }
                      }
                    }
                  }
                }
              }
            }
          }
        }
      }
    }
    JOINT LeftLeg
    {
      OFFSET 10.043214 -8.434526 2.595655
      CHANNELS 3 Zrotation Yrotation Xrotation
      JOINT LeftShin
      {
        OFFSET -1e-06 -43.221752 -0.802913
        CHANNELS 3 Zrotation Yrotation Xrotation
        JOINT LeftFoot
        {
          OFFSET 1e-06 -42.155094 -3.481523
          CHANNELS 3 Zrotation Yrotation Xrotation
          JOINT LeftToeBase
          {
            OFFSET 0.0 -5.059472 13.231529
            CHANNELS 3 Zrotation Yrotation Xrotation
            JOINT LeftToeEnd
            {
              OFFSET -0.009607 -1.647619 6.513017
              CHANNELS 3 Zrotation Yrotation Xrotation
            }
          }
        }
      }
    }
    JOINT RightLeg
    {
      OFFSET -10.047278 -8.29526 2.620317
      CHANNELS 3 Zrotation Yrotation Xrotation
      JOINT RightShin
      {
        OFFSET 1e-06 -43.362206 -0.805556
        CHANNELS 3 Zrotation Yrotation Xrotation
        JOINT RightFoot
        {
          OFFSET 2e-06 -42.117393 -3.478398
          CHANNELS 3 Zrotation Yrotation Xrotation
          JOINT RightToeBase
          {
            OFFSET -0.0 -5.079609 13.284196
            CHANNELS 3 Zrotation Yrotation Xrotation
            JOINT RightToeEnd
            {
              OFFSET 0.009532 -1.634378 6.460591
              CHANNELS 3 Zrotation Yrotation Xrotation
            }
          }
        }
      }
    }
  }
}
MOTION
Frames: 4
Frame Time: 0.03333333333333333
0.0 0.0 0.0 0.0 -0.0 0.0 4.949604 99.14846 -128.137451 -5.365519 3.424161 -5.11969 0.17482 -0.656593 2.082528 -0.286585 -3.242955 -3.696799 1.031677 -4.536916 13.369788 5.819379 0.906782 1.055519 -1.086154 0.314636 -3.48551 -1.874136 1.106734 -19.979425 7.7e-05 -2.2e-05 5e-06 -0.032899 -0.215413 0.105242 0.613361 -3.954164 -10.367456 -0.677287 3.520246 -10.366023 -8.515455 -9.075933 14.212267 -61.543159 -20.521172 -2.452469 -1.564098 -55.953545 1.871047 6.414559 11.303371 -2.85296 -5.88211 9.861292 0.70259 -10.936876 -0.360573 7.156208 1e-06 8.77483 -0.0 -15.828287 18.492168 6.331527 -1.844033 2.498505 -2.507279 -10.163605 4.678948 4.621112 -20.976034 -3e-06 4e-06 -21.226297 2.451699 -3.594002 0.0 -6e-06 -0.0 -1.362683 2.240801 -0.746324 -21.334925 0.584912 3.008324 -13.821218 -2e-06 1e-06 -23.887178 -0.249079 -0.839483 -60.433296 2.82685 -1.115016 -0.294025 1.679688 0.833256 -14.218215 0.093215 1.30058 -34.212063 -0.287563 0.967169 -20.033222 0.964536 1.212844 1e-06 1e-06 -1e-06 -3.44039 0.788235 0.501658 -15.928191 -3.167309 2.999708 -6.338829 0.0 0.0 -18.123453 3.648184 -4.905673 -4e-06 1e-06 -1e-06 13.927592 4.584657 17.601072 67.065842 -2.76226 4.069378 -0.005369 16.204956 0.153476 -14.695021 -11.849747 -4.21845 2.243539 -5.25504 -3.180159 14.282896 -0.826596 6.952507 -3e-06 -12.69061 1e-06 15.676706 -16.245394 2.936118 1.665665 -1.955922 -2.878301 4.727801 -4.17059 4.993927 11.020531 3e-06 -0.0 12.109056 -3.735717 -2.866785 -0.0 1e-06 0.0 1.291985 -1.928551 -1.49809 14.800132 0.567467 3.865611 14.242577 -1.341736 -6.66066 19.631971 0.143925 -0.648243 49.227882 -0.481363 -6.044646 0.353029 -1.511152 -0.03194 20.222801 3.684311 2.316634 18.787281 3e-06 1e-06 10.751633 -0.47987 1.397907 -0.0 0.0 0.0 3.273808 0.305947 -0.580111 21.48682 11.830381 2.266137 8.16293 2e-06 1e-06 18.399088 -3.798988 -4.940576 2e-06 0.0 -1e-06 3.455162 2.744887 6.966857 0.036426 -0.447616 14.487683 1.187265 1.154031 -14.477918 1.652307 -1.904543 0.029735 0.0 -0.0 2e-06 0.685067 8.344994 -38.085625 0.188458 0.710808 56.433739 0.551612 -2.947663 9.644738 -1.531981 1.179055 -0.155728 0.0 0.0 -1e-06 
0.0 0.0 0.0 0.0 -0.0 0.0 5.157691 99.774841 -130.122955 -5.717522 4.284344 -4.654583 0.149866 -0.773552 2.075033 -0.294662 -3.521914 -3.68212 1.104248 -4.971705 13.011053 6.199091 0.648051 1.043529 -1.025735 0.587646 -3.472919 -2.102122 1.131891 -19.709238 7.7e-05 -2.2e-05 5e-06 -0.021498 -0.190691 0.100519 0.617949 -3.924278 -10.35002 -0.659727 3.541286 -10.344094 -8.618477 -9.455901 14.048523 -61.353466 -19.440193 -3.504698 -2.352417 -59.080097 2.428668 6.437341 11.070204 -3.012186 -5.882109 9.861288 0.70259 -10.936876 -0.360576 7.156208 2e-06 8.774828 -1e-06 -15.843681 18.615192 6.342669 -1.844034 2.498503 -2.507278 -10.163604 4.678947 4.621109 -20.976038 -6e-06 -1e-06 -21.226299 2.451695 -3.594002 -1e-06 -6e-06 -1e-06 -1.362682 2.240799 -0.746324 -21.334925 0.584907 3.008322 -13.821218 -4e-06 0.0 -23.887182 -0.249081 -0.839485 -60.645573 2.77672 -1.175921 -0.294025 1.67969 0.833257 -14.218215 0.093215 1.300578 -34.212067 -0.287566 0.967167 -20.033222 0.964534 1.212842 1e-06 1e-06 0.0 -3.440389 0.788232 0.501655 -15.928192 -3.167311 2.999707 -6.338829 -1e-06 0.0 -18.123453 3.64818 -4.905674 -3e-06 0.0 -3e-06 14.055982 3.644937 17.460014 66.254494 -5.08862 1.631176 -0.309191 17.28636 0.104994 -13.975284 -10.996476 -6.05471 2.243541 -5.255037 -3.180157 14.282894 -0.826595 6.952504 -2e-06 -12.690605 0.0 15.65096 -16.163078 3.043942 1.665666 -1.955921 -2.878299 4.727801 -4.170588 4.993925 11.020529 4e-06 -0.0 12.109055 -3.735717 -2.866783 -0.0 1e-06 0.0 1.291985 -1.92855 -1.498089 14.800132 0.567468 3.865609 14.242576 -1.341736 -6.660656 19.631973 0.143924 -0.648244 49.073315 -0.568781 -5.949903 0.353028 -1.51115 -0.031939 20.222797 3.684309 2.316632 18.787279 5e-06 1e-06 10.751633 -0.479869 1.397906 -0.0 0.0 -0.0 3.273808 0.305947 -0.580111 21.486818 11.830376 2.266135 8.162929 1e-06 -0.0 18.399088 -3.798985 -4.940575 2e-06 0.0 -1e-06 3.644244 2.698578 5.359268 0.025388 -0.459378 13.567732 1.118449 0.611533 -12.507681 1.643953 -1.839227 0.224096 0.0 -0.0 2e-06 2.423216 7.580586 -39.357861 0.006489 0.457697 67.391495 -0.645676 -4.029845 8.045566 -1.57116 1.162593 -0.502795 -0.0 -0.0 -3e-06 
0.0 0.0 0.0 0.0 -0.0 0.0 5.353541 100.204811 -131.951385 -5.607818 4.896984 -4.218308 -0.038107 -0.8105 1.977318 -0.343276 -3.597824 -3.754351 1.039426 -5.169562 12.74464 6.446574 0.424999 1.128532 -0.964521 0.640756 -3.487961 -2.312299 1.170823 -19.39036 7.7e-05 -2.3e-05 5e-06 -0.015291 -0.180487 0.089783 0.617353 -3.909431 -10.356964 -0.647756 3.549068 -10.343184 -8.832365 -9.700344 14.086669 -61.219818 -18.764751 -3.928163 -2.596927 -60.173313 2.571021 6.234535 10.710343 -2.626174 -5.88211 9.861292 0.70259 -10.936873 -0.360575 7.156205 -1e-06 8.774831 -3e-06 -15.845308 18.69886 6.362644 -1.844033 2.498504 -2.507278 -10.163602 4.678948 4.621107 -20.97603 -1e-06 -2e-06 -21.226297 2.451701 -3.594007 -1e-06 -7e-06 -1e-06 -1.362682 2.240798 -0.746323 -21.334921 0.58491 3.008322 -13.821217 -1e-06 -1e-06 -23.887182 -0.24908 -0.839487 -60.768707 2.678841 -1.198647 -0.294025 1.679688 0.833256 -14.218213 0.093218 1.300578 -34.212055 -0.287564 0.967163 -20.033222 0.964534 1.212841 0.0 0.0 1e-06 -3.440389 0.788235 0.501655 -15.928192 -3.16731 2.999706 -6.33883 -1e-06 1e-06 -18.123453 3.648185 -4.905678 -4e-06 1e-06 -3e-06 14.080527 2.974642 17.259453 65.748741 -6.550506 -0.525867 -0.424949 17.714903 0.068832 -14.123001 -10.60018 -7.342569 2.243543 -5.255038 -3.180156 14.282896 -0.826596 6.952504 -3e-06 -12.690613 1e-06 15.558739 -16.2164 3.121972 1.665666 -1.955922 -2.878298 4.727799 -4.170591 4.993925 11.020529 4e-06 0.0 12.109053 -3.735718 -2.866783 0.0 0.0 0.0 1.291986 -1.92855 -1.498089 14.800134 0.56747 3.865608 14.242575 -1.341735 -6.660656 19.631969 0.143927 -0.648242 49.022961 -0.651092 -5.860781 0.353028 -1.511151 -0.031939 20.222797 3.684314 2.316632 18.787279 5e-06 1e-06 10.751631 -0.479868 1.397907 -1e-06 0.0 -0.0 3.273807 0.305949 -0.580111 21.48682 11.830384 2.266135 8.16293 2e-06 -0.0 18.399088 -3.798988 -4.940575 1e-06 0.0 -1e-06 3.274754 2.608982 3.798168 0.009322 -0.404956 13.035369 1.065726 0.366142 -10.765292 1.631531 -1.820535 0.422114 -0.0 -0.0 2e-06 3.710654 6.979894 -38.908062 -0.161264 0.176859 76.42379 -0.660353 -4.706813 6.947469 -1.591188 1.131004 -1.038892 -0.0 -1e-06 -4e-06 
0.0 0.0 0.0 0.0 -0.0 0.0 5.574834 100.459541 -133.687225 -5.154378 5.205411 -3.828716 -0.277788 -0.77242 1.83573 -0.399487 -3.511782 -3.86707 0.867617 -5.146085 12.510605 6.408734 0.297846 1.294946 -0.89881 0.559627 -3.506143 -2.443906 1.198403 -19.109198 7.7e-05 -2.3e-05 5e-06 -0.009145 -0.165435 0.076158 0.617534 -3.893925 -10.390665 -0.637022 3.565486 -10.371859 -9.023218 -9.768608 14.179424 -61.322853 -18.36858 -3.929867 -2.471966 -59.431137 2.411026 5.876266 10.486298 -1.948218 -5.882107 9.86129 0.70259 -10.936872 -0.360574 7.156204 -1e-06 8.774828 -1e-06 -15.859433 18.714928 6.346859 -1.844032 2.498505 -2.507277 -10.163599 4.678945 4.621109 -20.976021 -3e-06 1e-06 -21.226286 2.451699 -3.594002 -1e-06 -5e-06 -1e-06 -1.362682 2.240799 -0.746324 -21.334913 0.58491 3.008322 -13.821214 -3e-06 2e-06 -23.887167 -0.249078 -0.839484 -60.799782 2.600178 -1.210866 -0.294025 1.679686 0.833255 -14.218208 0.093213 1.30058 -34.212048 -0.287561 0.967169 -20.033215 0.964537 1.21284 -0.0 1e-06 -0.0 -3.440388 0.788234 0.501656 -15.928185 -3.167309 2.999706 -6.338825 -2e-06 0.0 -18.123444 3.648187 -4.905671 -3e-06 1e-06 -2e-06 13.890654 2.706367 17.058823 65.558151 -7.192648 -1.776467 -0.390736 17.439419 0.082768 -14.109111 -10.689906 -7.632212 2.243544 -5.25504 -3.180159 14.282902 -0.826596 6.952507 -3e-06 -12.690614 1e-06 15.380138 -16.280426 3.186607 1.665667 -1.955923 -2.8783 4.727803 -4.170591 4.993927 11.020535 5e-06 -1e-06 12.10906 -3.735717 -2.866785 -0.0 0.0 1e-06 1.291986 -1.92855 -1.49809 14.800139 0.567469 3.865611 14.242583 -1.341737 -6.660661 19.631985 0.143927 -0.648244 49.010838 -0.661693 -5.78934 0.353031 -1.511152 -0.03194 20.222805 3.684312 2.316632 18.787289 4e-06 -1e-06 10.751637 -0.479869 1.397907 -0.0 0.0 0.0 3.27381 0.305947 -0.580111 21.486832 11.830384 2.266134 8.162934 1e-06 -1e-06 18.399099 -3.798988 -4.94058 1e-06 0.0 -0.0 2.444155 2.404556 2.25292 0.002856 -0.330146 12.911925 1.164587 0.562342 -9.311489 1.619759 -1.845426 0.582874 0.0 -0.0 2e-06 4.463081 6.473521 -36.581341 -0.278352 -0.069039 82.485863 0.037449 -4.985542 6.154147 -1.576796 1.086797 -1.54176 0.0 -0.0 -2e-06 
